# xmcd
# 
# Track frame offsets:
#     150
#     22289
#     42017
#     61041
#     80692
#     99800
#     121918
#     141646
#     160670
#     180333
# 
# Disc length: 2655
# 
# Revision: 0
# Processed by: cddbd v1.5.2PL0 Copyright (c) Steve Scherf et al.
# Submitted via: fre:ac v1.0.31
# 
DISCID=790a5d0a
DTITLE=宇佐美奈々子(CV.伊藤美来)、小日向縁(CV.三澤紗千香)、三日月ゆい(CV.吉岡麻耶)、名都借みらい(CV.水瀬いのり) - TVアニメーション「普通の女子校生が【ろこどる】やってみた。」ヴォーカル・アルバム ～アイドル、やってます!～
DYEAR=2014
DGENRE=Anime
TTITLE0=ミライファンファーレ (Album Version)
TTITLE1=Action!!
TTITLE2=流川ガールズソング
TTITLE3=泣き虫のfairy tale
TTITLE4=未来少女たち (Version 3)
TTITLE5=ミライファンファーレ (Album Version) (Off Vocal Version)
TTITLE6=Action!! (Off Vocal Version)
TTITLE7=流川ガールズソング (Off Vocal Version)
TTITLE8=泣き虫のfairy tale (Off Vocal Version)
TTITLE9=未来少女たち (Version 3) (Off Vocal Version)
EXTD=
EXTT0=
EXTT1=
EXTT2=
EXTT3=
EXTT4=
EXTT5=
EXTT6=
EXTT7=
EXTT8=
EXTT9=
PLAYORDER=
